<svg width="20" height="24" viewBox="0 0 16 20" fill="none" xmlns="http://www.w3.org/2000/svg">
<path d="M1.389 7.113L2.49 18.021C2.551 18.482 4.777 19.998 8 20C11.225 19.998 13.451 18.482 13.511 18.021L14.613 7.113C12.929 8.055 10.412 8.5 8 8.5C5.59 8.5 3.072 8.055 1.389 7.113V7.113ZM11.168 1.51L10.309 0.559C9.977 0.086 9.617 0 8.916 0H7.085C6.385 0 6.024 0.086 5.693 0.559L4.834 1.51C2.264 1.959 0.400002 3.15 0.400002 4.029V4.199C0.400002 5.746 3.803 7 8 7C12.198 7 15.601 5.746 15.601 4.199V4.029C15.601 3.15 13.738 1.959 11.168 1.51V1.51ZM10.07 4.34L9 3H7L5.932 4.34H4.232C4.232 4.34 6.094 2.119 6.343 1.818C6.533 1.588 6.727 1.5 6.979 1.5H9.022C9.275 1.5 9.469 1.588 9.659 1.818C9.907 2.119 11.77 4.34 11.77 4.34H10.07Z" fill="#E94560"/>
</svg>
