<svg width="20" height="20" viewBox="0 0 15 15" fill="none" xmlns="http://www.w3.org/2000/svg">
<path fill-rule="evenodd" clip-rule="evenodd" d="M7.5 0C3.35795 0 0 3.35795 0 7.5C0 11.642 3.35795 15 7.5 15C11.642 15 15 11.642 15 7.5C15 3.35795 11.642 0 7.5 0ZM10.7509 6.23182C10.8108 6.16339 10.8563 6.08369 10.8849 5.99739C10.9135 5.91109 10.9246 5.81994 10.9175 5.72931C10.9103 5.63867 10.8851 5.55038 10.8433 5.46963C10.8016 5.38888 10.7441 5.3173 10.6742 5.2591C10.6044 5.20089 10.5236 5.15725 10.4367 5.13072C10.3497 5.1042 10.2583 5.09534 10.1679 5.10466C10.0774 5.11397 9.98978 5.14128 9.91005 5.18498C9.83033 5.22867 9.76015 5.28787 9.70364 5.35909L6.77182 8.87659L5.25477 7.35886C5.12618 7.23467 4.95395 7.16594 4.77518 7.1675C4.59641 7.16905 4.4254 7.24075 4.29899 7.36717C4.17257 7.49358 4.10087 7.66459 4.09931 7.84336C4.09776 8.02213 4.16648 8.19436 4.29068 8.32295L6.33614 10.3684C6.40313 10.4354 6.48334 10.4876 6.57165 10.5219C6.65996 10.5561 6.75443 10.5716 6.84905 10.5673C6.94366 10.563 7.03635 10.539 7.12119 10.4969C7.20603 10.4548 7.28117 10.3955 7.34182 10.3227L10.7509 6.23182Z" fill="#E94560"/>
</svg>
